<svg width="1088" height="574" viewBox="0 0 1088 574" fill="none" xmlns="http://www.w3.org/2000/svg">
<path d="M164.15 385L158.58 389.24L160.681 392H164.15V385ZM81.55 276.5L87.1197 272.26L74.55 255.749V276.5H81.55ZM81.55 385V392H88.55V385H81.55ZM21.7 385H14.7V392H21.7V385ZM21.7 139.3V132.3H14.7V139.3H21.7ZM81.55 139.3H88.55V132.3H81.55V139.3ZM81.55 247.1H74.55V267.885L87.1238 251.335L81.55 247.1ZM163.45 139.3V132.3H159.977L157.876 135.065L163.45 139.3ZM233.8 139.3L239.291 143.642L248.259 132.3H233.8V139.3ZM138.6 259.7L133.109 255.358L129.683 259.692L133.101 264.032L138.6 259.7ZM237.3 385V392H251.725L242.799 380.668L237.3 385ZM169.72 380.76L87.1197 272.26L75.9803 280.74L158.58 389.24L169.72 380.76ZM74.55 276.5V385H88.55V276.5H74.55ZM81.55 378H21.7V392H81.55V378ZM28.7 385V139.3H14.7V385H28.7ZM21.7 146.3H81.55V132.3H21.7V146.3ZM74.55 139.3V247.1H88.55V139.3H74.55ZM87.1238 251.335L169.024 143.535L157.876 135.065L75.9762 242.865L87.1238 251.335ZM163.45 146.3H233.8V132.3H163.45V146.3ZM228.309 134.958L133.109 255.358L144.091 264.042L239.291 143.642L228.309 134.958ZM133.101 264.032L231.801 389.332L242.799 380.668L144.099 255.368L133.101 264.032ZM237.3 378H164.15V392H237.3V378ZM466.293 301.7V308.7H472.532L473.247 302.502L466.293 301.7ZM330.843 301.7V294.7H323.284L323.864 302.237L330.843 301.7ZM342.393 329.7L337.531 334.736L337.619 334.821L337.71 334.903L342.393 329.7ZM399.093 320.25V313.25H394.62L392.741 317.309L399.093 320.25ZM462.793 320.25L469.577 321.977L471.798 313.25H462.793V320.25ZM444.943 354.9L439.585 350.395L439.555 350.431L439.525 350.467L444.943 354.9ZM413.093 379.05L415.99 385.423L413.093 379.05ZM318.943 375.55L315.584 381.692L315.584 381.692L318.943 375.55ZM283.943 340.55L290.067 337.158L290.067 337.158L283.943 340.55ZM283.593 234.15L277.469 230.758L277.449 230.795L277.43 230.831L283.593 234.15ZM318.593 199.15L321.952 205.292L321.952 205.292L318.593 199.15ZM420.443 198.8L417.118 204.96L417.118 204.96L420.443 198.8ZM454.743 232.75L448.624 236.149L448.644 236.186L448.665 236.223L454.743 232.75ZM406.093 268.45V275.45H413.093V268.45H406.093ZM395.593 243.95L400.177 238.66L400.177 238.66L395.593 243.95ZM343.793 243.6L339.312 238.222L339.267 238.26L339.222 238.298L343.793 243.6ZM331.193 268.45L324.273 267.397L323.047 275.45H331.193V268.45ZM460.343 284.2C460.343 289.509 460.011 295.074 459.339 300.898L473.247 302.502C473.975 296.193 474.343 290.091 474.343 284.2H460.343ZM466.293 294.7H330.843V308.7H466.293V294.7ZM323.864 302.237C324.889 315.564 329.205 326.697 337.531 334.736L347.255 324.664C342.048 319.636 338.664 312.103 337.822 301.163L323.864 302.237ZM337.71 334.903C346.084 342.44 356.304 346.15 367.943 346.15V332.15C359.516 332.15 352.702 329.56 347.076 324.497L337.71 334.903ZM367.943 346.15C376.397 346.15 384.049 344.361 390.562 340.41C397.107 336.438 402.03 330.567 405.445 323.191L392.741 317.309C390.322 322.533 387.137 326.112 383.299 328.44C379.429 330.789 374.422 332.15 367.943 332.15V346.15ZM399.093 327.25H462.793V313.25H399.093V327.25ZM456.009 318.523C453.006 330.321 447.549 340.924 439.585 350.395L450.301 359.405C459.603 348.342 466.046 335.845 469.577 321.977L456.009 318.523ZM439.525 350.467C431.848 359.851 422.114 367.26 410.196 372.677L415.99 385.423C429.738 379.173 441.238 370.483 450.361 359.333L439.525 350.467ZM410.196 372.677C398.381 378.048 385.036 380.8 370.043 380.8V394.8C386.783 394.8 402.139 391.718 415.99 385.423L410.196 372.677ZM370.043 380.8C351.935 380.8 336.083 376.945 322.302 369.408L315.584 381.692C331.67 390.488 349.884 394.8 370.043 394.8V380.8ZM322.302 369.408C308.555 361.89 297.837 351.188 290.067 337.158L277.819 343.941C286.849 360.245 299.465 372.876 315.584 381.692L322.302 369.408ZM290.067 337.158C282.333 323.195 278.343 306.667 278.343 287.35H264.343C264.343 308.633 268.753 327.572 277.819 343.941L290.067 337.158ZM278.343 287.35C278.343 268.002 282.229 251.448 289.756 237.469L277.43 230.831C268.623 247.186 264.343 266.098 264.343 287.35H278.343ZM289.717 237.541C297.487 223.512 308.205 212.81 321.952 205.292L315.234 193.008C299.115 201.824 286.499 214.455 277.469 230.758L289.717 237.541ZM321.952 205.292C335.72 197.762 351.686 193.9 370.043 193.9V179.9C349.666 179.9 331.332 184.205 315.234 193.008L321.952 205.292ZM370.043 193.9C387.937 193.9 403.568 197.647 417.118 204.96L423.768 192.64C407.918 184.086 389.949 179.9 370.043 179.9V193.9ZM417.118 204.96C430.634 212.254 441.102 222.609 448.624 236.149L460.862 229.35C452.051 213.491 439.652 201.212 423.768 192.64L417.118 204.96ZM448.665 236.223C456.371 249.709 460.343 265.624 460.343 284.2H474.343C474.343 263.576 469.915 245.191 460.821 229.277L448.665 236.223ZM413.093 268.45C413.093 256.4 408.889 246.21 400.177 238.66L391.008 249.24C396.297 253.823 399.093 259.967 399.093 268.45H413.093ZM400.177 238.66C391.735 231.343 381.287 227.85 369.343 227.85V241.85C378.399 241.85 385.451 244.424 391.008 249.24L400.177 238.66ZM369.343 227.85C357.849 227.85 347.699 231.233 339.312 238.222L348.274 248.978C353.887 244.301 360.77 241.85 369.343 241.85V227.85ZM339.222 238.298C330.933 245.444 326.101 255.383 324.273 267.397L338.113 269.503C339.552 260.051 343.119 253.423 348.364 248.902L339.222 238.298ZM331.193 275.45H406.093V261.45H331.193V275.45ZM604.267 329L597.569 331.036L604.267 353.065L610.964 331.036L604.267 329ZM646.617 189.7V182.7H641.429L639.919 187.664L646.617 189.7ZM710.317 189.7L716.914 192.041L720.228 182.7H710.317V189.7ZM641.017 385V392H645.961L647.614 387.341L641.017 385ZM567.167 385L560.57 387.341L562.223 392H567.167V385ZM497.867 189.7V182.7H487.955L491.27 192.041L497.867 189.7ZM561.917 189.7L568.614 187.664L567.105 182.7H561.917V189.7ZM610.964 331.036L653.314 191.736L639.919 187.664L597.569 326.964L610.964 331.036ZM646.617 196.7H710.317V182.7H646.617V196.7ZM703.72 187.359L634.42 382.659L647.614 387.341L716.914 192.041L703.72 187.359ZM641.017 378H567.167V392H641.017V378ZM573.764 382.659L504.464 187.359L491.27 192.041L560.57 387.341L573.764 382.659ZM497.867 196.7H561.917V182.7H497.867V196.7ZM555.219 191.736L597.569 331.036L610.964 326.964L568.614 187.664L555.219 191.736ZM757.209 160.3L752.35 165.339L752.441 165.427L752.536 165.512L757.209 160.3ZM757.209 114.1L761.972 119.23L761.979 119.223L757.209 114.1ZM808.309 114.1L803.45 119.139L803.541 119.227L803.636 119.312L808.309 114.1ZM808.309 160.3L813.072 165.43L813.079 165.423L808.309 160.3ZM812.859 189.7H819.859V182.7H812.859V189.7ZM812.859 385V392H819.859V385H812.859ZM753.009 385H746.009V392H753.009V385ZM753.009 189.7V182.7H746.009V189.7H753.009ZM783.109 162.4C774.048 162.4 767.166 159.826 761.881 155.088L752.536 165.512C760.784 172.907 771.169 176.4 783.109 176.4V162.4ZM762.068 155.261C756.906 150.284 754.409 144.405 754.409 137.2H740.409C740.409 148.195 744.444 157.716 752.35 165.339L762.068 155.261ZM754.409 137.2C754.409 129.71 756.938 123.903 761.972 119.23L752.445 108.97C744.412 116.43 740.409 126.023 740.409 137.2H754.409ZM761.979 119.223C767.272 114.295 774.12 111.65 783.109 111.65V97.65C771.097 97.65 760.678 101.305 752.439 108.977L761.979 119.223ZM783.109 111.65C791.82 111.65 798.395 114.265 803.45 119.139L813.168 109.061C805.155 101.335 794.93 97.65 783.109 97.65V111.65ZM803.636 119.312C808.877 124.011 811.459 129.795 811.459 137.2H825.459C825.459 125.939 821.274 116.323 812.981 108.888L803.636 119.312ZM811.459 137.2C811.459 144.322 808.909 150.177 803.539 155.177L813.079 165.423C821.242 157.823 825.459 148.278 825.459 137.2H811.459ZM803.545 155.17C798.503 159.853 791.895 162.4 783.109 162.4V176.4C794.855 176.4 805.048 172.88 813.072 165.43L803.545 155.17ZM805.859 189.7V385H819.859V189.7H805.859ZM812.859 378H753.009V392H812.859V378ZM760.009 385V189.7H746.009V385H760.009ZM753.009 196.7H812.859V182.7H753.009V196.7ZM1047.33 210L1042.14 214.701L1042.18 214.743L1042.22 214.785L1047.33 210ZM1067.98 385V392H1074.98V385H1067.98ZM1008.48 385H1001.48V392H1008.48V385ZM998.331 248.5L993.219 253.282L993.219 253.282L998.331 248.5ZM943.731 248.5L948.843 253.282L948.843 253.282L943.731 248.5ZM933.581 385V392H940.581V385H933.581ZM873.731 385H866.731V392H873.731V385ZM873.731 189.7V182.7H866.731V189.7H873.731ZM933.581 189.7H940.581V182.7H933.581V189.7ZM933.581 215.6H926.581V237.737L939.309 219.625L933.581 215.6ZM958.081 195.3L961.096 201.617L961.154 201.59L961.212 201.561L958.081 195.3ZM992.731 194.6C1013.92 194.6 1030.12 201.436 1042.14 214.701L1052.52 205.299C1037.47 188.697 1017.28 180.6 992.731 180.6V194.6ZM1042.22 214.785C1054.46 227.849 1060.98 246.251 1060.98 270.9H1074.98C1074.98 243.749 1067.74 221.551 1052.44 205.215L1042.22 214.785ZM1060.98 270.9V385H1074.98V270.9H1060.98ZM1067.98 378H1008.48V392H1067.98V378ZM1015.48 385V278.95H1001.48V385H1015.48ZM1015.48 278.95C1015.48 264.689 1011.77 252.618 1003.44 243.718L993.219 253.282C998.426 258.848 1001.48 267.077 1001.48 278.95H1015.48ZM1003.44 243.718C995.145 234.847 984.075 230.65 971.031 230.65V244.65C980.854 244.65 987.984 247.686 993.219 253.282L1003.44 243.718ZM971.031 230.65C957.988 230.65 946.918 234.847 938.619 243.718L948.843 253.282C954.078 247.686 961.208 244.65 971.031 244.65V230.65ZM938.619 243.718C930.293 252.618 926.581 264.689 926.581 278.95H940.581C940.581 267.077 943.636 258.848 948.843 253.282L938.619 243.718ZM926.581 278.95V385H940.581V278.95H926.581ZM933.581 378H873.731V392H933.581V378ZM880.731 385V189.7H866.731V385H880.731ZM873.731 196.7H933.581V182.7H873.731V196.7ZM926.581 189.7V215.6H940.581V189.7H926.581ZM939.309 219.625C944.63 212.052 951.828 206.041 961.096 201.617L955.066 188.983C943.801 194.359 934.666 201.881 927.854 211.575L939.309 219.625ZM961.212 201.561C970.397 196.968 980.855 194.6 992.731 194.6V180.6C978.941 180.6 966.299 183.365 954.951 189.039L961.212 201.561Z" fill="white"/>
<path d="M68 514L46.1 474.25H39.95V514H14.3V408.7H57.35C65.65 408.7 72.7 410.15 78.5 413.05C84.4 415.95 88.8 419.95 91.7 425.05C94.6 430.05 96.05 435.65 96.05 441.85C96.05 448.85 94.05 455.1 90.05 460.6C86.15 466.1 80.35 470 72.65 472.3L96.95 514H68ZM39.95 456.1H55.85C60.55 456.1 64.05 454.95 66.35 452.65C68.75 450.35 69.95 447.1 69.95 442.9C69.95 438.9 68.75 435.75 66.35 433.45C64.05 431.15 60.55 430 55.85 430H39.95V456.1ZM221.052 472C221.052 463.4 222.652 455.85 225.852 449.35C229.152 442.85 233.602 437.85 239.202 434.35C244.802 430.85 251.052 429.1 257.952 429.1C263.852 429.1 269.002 430.3 273.402 432.7C277.902 435.1 281.352 438.25 283.752 442.15V430.3H309.402V514H283.752V502.15C281.252 506.05 277.752 509.2 273.252 511.6C268.852 514 263.702 515.2 257.802 515.2C251.002 515.2 244.802 513.45 239.202 509.95C233.602 506.35 229.152 501.3 225.852 494.8C222.652 488.2 221.052 480.6 221.052 472ZM283.752 472.15C283.752 465.75 281.952 460.7 278.352 457C274.852 453.3 270.552 451.45 265.452 451.45C260.352 451.45 256.002 453.3 252.402 457C248.902 460.6 247.152 465.6 247.152 472C247.152 478.4 248.902 483.5 252.402 487.3C256.002 491 260.352 492.85 265.452 492.85C270.552 492.85 274.852 491 278.352 487.3C281.952 483.6 283.752 478.55 283.752 472.15ZM467.608 442.15C470.008 438.25 473.458 435.1 477.958 432.7C482.458 430.3 487.608 429.1 493.408 429.1C500.308 429.1 506.558 430.85 512.158 434.35C517.758 437.85 522.158 442.85 525.358 449.35C528.658 455.85 530.308 463.4 530.308 472C530.308 480.6 528.658 488.2 525.358 494.8C522.158 501.3 517.758 506.35 512.158 509.95C506.558 513.45 500.308 515.2 493.408 515.2C487.508 515.2 482.358 514.05 477.958 511.75C473.558 509.35 470.108 506.2 467.608 502.3V514H441.958V403H467.608V442.15ZM504.208 472C504.208 465.6 502.408 460.6 498.808 457C495.308 453.3 490.958 451.45 485.758 451.45C480.658 451.45 476.308 453.3 472.708 457C469.208 460.7 467.458 465.75 467.458 472.15C467.458 478.55 469.208 483.6 472.708 487.3C476.308 491 480.658 492.85 485.758 492.85C490.858 492.85 495.208 491 498.808 487.3C502.408 483.5 504.208 478.4 504.208 472ZM652.665 472C652.665 463.4 654.265 455.85 657.465 449.35C660.765 442.85 665.215 437.85 670.815 434.35C676.415 430.85 682.665 429.1 689.565 429.1C695.465 429.1 700.615 430.3 705.015 432.7C709.515 435.1 712.965 438.25 715.365 442.15V430.3H741.015V514H715.365V502.15C712.865 506.05 709.365 509.2 704.865 511.6C700.465 514 695.315 515.2 689.415 515.2C682.615 515.2 676.415 513.45 670.815 509.95C665.215 506.35 660.765 501.3 657.465 494.8C654.265 488.2 652.665 480.6 652.665 472ZM715.365 472.15C715.365 465.75 713.565 460.7 709.965 457C706.465 453.3 702.165 451.45 697.065 451.45C691.965 451.45 687.615 453.3 684.015 457C680.515 460.6 678.765 465.6 678.765 472C678.765 478.4 680.515 483.5 684.015 487.3C687.615 491 691.965 492.85 697.065 492.85C702.165 492.85 706.465 491 709.965 487.3C713.565 483.6 715.365 478.55 715.365 472.15ZM899.221 444.25C902.221 439.65 905.971 436.05 910.471 433.45C914.971 430.75 919.971 429.4 925.471 429.4V456.55H918.421C912.021 456.55 907.221 457.95 904.021 460.75C900.821 463.45 899.221 468.25 899.221 475.15V514H873.571V430.3H899.221V444.25ZM1064.63 421.6C1060.13 421.6 1056.43 420.3 1053.53 417.7C1050.73 415 1049.33 411.7 1049.33 407.8C1049.33 403.8 1050.73 400.5 1053.53 397.9C1056.43 395.2 1060.13 393.85 1064.63 393.85C1069.03 393.85 1072.63 395.2 1075.43 397.9C1078.33 400.5 1079.78 403.8 1079.78 407.8C1079.78 411.7 1078.33 415 1075.43 417.7C1072.63 420.3 1069.03 421.6 1064.63 421.6ZM1077.38 430.3V514H1051.73V430.3H1077.38Z" fill="#7EC1FF"/>
</svg>
